<?xml version="1.0" standalone="no"?>
<!DOCTYPE svg PUBLIC "-//W3C//DTD SVG 20010904//EN"
 "http://www.w3.org/TR/2001/REC-SVG-20010904/DTD/svg10.dtd">
<svg version="1.0" xmlns="http://www.w3.org/2000/svg"
 width="225.000000pt" height="225.000000pt" viewBox="0 0 225.000000 225.000000"
 preserveAspectRatio="xMidYMid meet">
<metadata>
Created by potrace 1.14, written by Peter Selinger 2001-2017
</metadata>
<g transform="translate(0.000000,225.000000) scale(0.100000,-0.100000)"
fill="#000000" stroke="none">
<path d="M531 1678 c-539 -530 -531 -522 -531 -553 0 -26 43 -72 317 -340 418
-409 447 -435 478 -435 31 0 58 25 483 440 271 265 312 309 312 335 0 25 -22
52 -139 167 -119 120 -142 138 -170 138 -43 0 -81 -38 -81 -81 0 -27 13 -45
80 -111 122 -119 133 -94 -177 -398 -142 -139 -268 -257 -280 -263 -12 -5 -32
-7 -46 -3 -13 3 -142 121 -285 262 -234 228 -262 259 -262 287 0 18 4 37 8 42
4 6 123 124 264 263 301 296 283 287 387 196 56 -49 68 -55 95 -50 40 8 66 40
66 79 0 27 -17 48 -109 139 -156 155 -128 163 -410 -114z"/>
<path d="M1045 1534 c-205 -201 -376 -373 -379 -381 -18 -46 20 -95 198 -255
80 -73 91 -80 120 -74 39 8 66 39 66 78 0 24 -16 47 -80 112 -63 65 -80 89
-80 112 0 25 34 62 228 255 125 124 246 242 270 262 76 67 70 70 355 -210 139
-135 258 -253 265 -262 6 -8 12 -29 12 -46 0 -26 -27 -57 -202 -231 -295 -291
-332 -324 -362 -324 -18 0 -46 18 -86 55 -45 42 -67 55 -90 55 -42 0 -80 -39
-80 -82 0 -29 13 -46 107 -136 112 -106 139 -122 178 -104 36 16 755 724 761
749 3 12 3 30 0 41 -4 11 -175 185 -381 386 -352 345 -375 366 -410 366 -34 0
-57 -21 -410 -366z"/>
</g>
</svg>
