<svg width="16" height="12" fill="none" xmlns="http://www.w3.org/2000/svg"><path fill-rule="evenodd" clip-rule="evenodd" d="M4 .5h12v11H4V.5Z" fill="#EF0000"/><path fill-rule="evenodd" clip-rule="evenodd" d="M0 .5h6v11H0V.5Z" fill="#2F8D00"/><mask id="a" style="mask-type:alpha" maskUnits="userSpaceOnUse" x="2" y="2" width="8" height="8"><path fill-rule="evenodd" clip-rule="evenodd" d="M5.952 9.578c-2.13 0-3.857-1.602-3.857-3.578 0-1.976 1.727-3.578 3.857-3.578S9.81 4.024 9.81 6c0 1.976-1.726 3.578-3.857 3.578Z" fill="#fff"/></mask><g mask="url(#a)" fill="#FFE017"><path fill-rule="evenodd" clip-rule="evenodd" d="M5.714 2.333h.5V3.57h-.5V2.333ZM5.714 8.518h.5v1.149h-.5v-1.15Z"/><path d="m2.157 6.185-.14-.329c1.543-.564 2.707-.928 3.497-1.092 1.16-.241 2.433-.42 3.821-.535l.034.352a31.45 31.45 0 0 0-3.771.527c-.767.16-1.915.519-3.44 1.077Z"/><path d="m9.57 4.013-.113.337c-1.166-.337-2.116-.483-2.846-.438l-.025-.352c.784-.048 1.778.103 2.984.453ZM9.974 5.899l-.216.291c-.594-.378-1.326-.568-2.201-.568V5.27c.948 0 1.756.21 2.417.63Z"/><path d="m9.651 6.005.098.341c-1.28.318-2.484.499-3.609.541-1.132.043-2.452-.138-3.96-.542l.105-.34c1.472.395 2.752.57 3.84.53 1.095-.042 2.27-.219 3.526-.53Z"/><path d="m9.506 7.666-.602.566C7.759 7.184 6.752 6.435 5.887 5.985c-.879-.458-2.025-.923-3.437-1.394l.29-.748c1.453.484 2.642.966 3.567 1.448.94.49 2.004 1.282 3.199 2.375ZM2.73 7.987 2.5 7.704a4.762 4.762 0 0 1 .594-.33c.425-.199.852-.322 1.259-.334h.059v.353h-.048c-.343.01-.72.12-1.1.296a4.378 4.378 0 0 0-.536.298Z"/><path d="m2.906 8.11.096-.343c1.27.307 2.25.46 2.932.46.681 0 1.695-.18 3.034-.542l.106.34c-1.37.37-2.415.555-3.14.555-.721 0-1.73-.157-3.028-.47ZM2.411 4.943l.604-.564.883.812-.603.565-.884-.813Z"/><path d="m7.418 7.763.449-.677 1.402.8-.45.677-1.401-.8Z"/></g><path fill-rule="evenodd" clip-rule="evenodd" d="M2.095 6c0 1.976 1.727 3.578 3.857 3.578S9.81 7.976 9.81 6c0-1.976-1.726-3.578-3.857-3.578-2.13 0-3.857 1.602-3.857 3.578Zm7.238.044c0 1.708-1.492 3.092-3.333 3.092-1.841 0-3.333-1.384-3.333-3.092 0-1.708 1.492-3.092 3.333-3.092 1.84 0 3.333 1.384 3.333 3.092Z" fill="#F9E813"/><path d="M3.828 3.793v2.87c.206 1.135.9 1.703 2.083 1.703 1.182 0 1.877-.568 2.083-1.703v-2.87H3.828Z" fill="#fff"/><path d="M3.043 3.25h5.536v3.402l-.004.024C8.307 8.035 7.359 8.75 5.81 8.75c-1.548 0-2.496-.715-2.764-2.074l-.004-.024V3.25Z" fill="#C51918"/><path fill-rule="evenodd" clip-rule="evenodd" d="M4.524 4.124h-.9v.825h.9v-.825Zm3.5 0h-.9v.825h.9v-.825ZM3.624 5.957h.9v.825h-.9v-.825Zm3.55.013h.9v.825h-.9V5.97Zm.013 1.336h-.9v.825h.9v-.825ZM4.324 7.302h.9v.825h-.9v-.825Z" fill="#F9E813"/><path d="M4.426 4.492h2.97v2.036s-.22 1.05-1.485 1.05c-1.265 0-1.485-1.05-1.485-1.05V4.492Z" fill="#F7FCFF"/><path d="M5.619 4.719h.66v.44s-.049.228-.33.228-.33-.227-.33-.227v-.441ZM5.619 5.69h.66v.441s-.049.228-.33.228-.33-.228-.33-.228v-.44ZM6.476 5.69h.66v.441s-.049.228-.33.228c-.28 0-.33-.228-.33-.228v-.44ZM4.762 5.69h.66v.441s-.049.228-.33.228-.33-.228-.33-.228v-.44ZM5.619 6.663h.66v.44s-.049.228-.33.228-.33-.228-.33-.228v-.44Z" fill="#013399"/></svg>