<svg width="16" height="12" fill="none" xmlns="http://www.w3.org/2000/svg"><path fill-rule="evenodd" clip-rule="evenodd" d="M0 .5v11h16V.5H0Z" fill="#FFB400"/><mask id="a" style="mask-type:alpha" maskUnits="userSpaceOnUse" x="0" y="0" width="16" height="12"><path fill-rule="evenodd" clip-rule="evenodd" d="M0 .5v11h16V.5H0Z" fill="#fff"/></mask><g mask="url(#a)"><path fill-rule="evenodd" clip-rule="evenodd" d="M0 .5v2.75h16V.5H0ZM0 8.75v2.75h16V8.75H0Z" fill="#C51918"/><path fill="#F1F9FF" d="M2.504 5.208h.56v2.669h-.56z"/><path fill-rule="evenodd" clip-rule="evenodd" d="M3.288 4.746H2.28v.257h.168v.205h.672v-.205h.168v-.257ZM3.12 8.031h.168v.257H2.28v-.257h.168v-.205h.672v.205Z" fill="#C88A02"/><path fill-rule="evenodd" clip-rule="evenodd" d="M2.784 4.797c.122 0 .134-.042.206-.105.056-.048.186-.109.186-.177 0-.156-.175-.282-.392-.282-.216 0-.392.126-.392.282 0 .076.09.127.157.177.072.054.124.105.235.105Z" fill="#AD1619"/><path fill-rule="evenodd" clip-rule="evenodd" d="M2.28 8.288h1.008v.41s-.126-.05-.252-.05-.252.05-.252.05-.126-.05-.252-.05-.252.05-.252.05v-.41Z" fill="#005BBF"/><mask id="b" style="mask-type:alpha" maskUnits="userSpaceOnUse" x="2" y="8" width="2" height="1"><path fill-rule="evenodd" clip-rule="evenodd" d="M2.28 8.288h1.008v.41s-.126-.05-.252-.05-.252.05-.252.05-.126-.05-.252-.05-.252.05-.252.05v-.41Z" fill="#fff"/></mask><path fill="#F1F9FF" d="M7.992 5.208h.56v2.669h-.56z"/><path fill-rule="evenodd" clip-rule="evenodd" d="M8.776 4.746H7.768v.257h.168v.205h.672v-.205h.168v-.257ZM8.608 8.031h.168v.257H7.768v-.257h.168v-.205h.672v.205Z" fill="#C88A02"/><path fill-rule="evenodd" clip-rule="evenodd" d="M8.272 4.797c.122 0 .134-.042.206-.105.056-.048.186-.109.186-.177 0-.156-.175-.282-.392-.282-.216 0-.392.126-.392.282 0 .076.09.127.157.177.072.054.124.105.235.105Z" fill="#AD1619"/><path fill-rule="evenodd" clip-rule="evenodd" d="M7.768 8.288h1.008v.41s-.126-.05-.252-.05-.252.05-.252.05-.126-.05-.252-.05-.252.05-.252.05v-.41Z" fill="#005BBF"/><mask id="c" style="mask-type:alpha" maskUnits="userSpaceOnUse" x="7" y="8" width="2" height="1"><path fill-rule="evenodd" clip-rule="evenodd" d="M7.768 8.288h1.008v.41s-.126-.05-.252-.05-.252.05-.252.05-.126-.05-.252-.05-.252.05-.252.05v-.41Z" fill="#fff"/></mask><path fill-rule="evenodd" clip-rule="evenodd" d="M2.494 7.687c.101-.113.157-.215.157-.323a.274.274 0 0 0-.06-.176l.006-.002.15-.062c.072-.031.135-.065.197-.106.04-.026.092-.055.173-.095l.096-.047.096-.048a.6.6 0 0 0 .183-.132c.102-.118.08-.277-.061-.366a.774.774 0 0 0-.301-.088l-.197-.028-.177-.026c.345-.053.836-.034 1.052.069l.206-.365c-.44-.209-1.445-.187-1.82.05-.275.173-.238.436.048.549.12.047.276.078.564.12-.048.026-.088.05-.126.075a.819.819 0 0 1-.127.068l-.125.051-.017.007c-.233.097-.346.231-.312.474l.018.131.033.01.344.26Zm-.288-.34v.002-.001Zm6.147.017c0 .108.056.21.157.323l.344-.26.033-.01.018-.13c.034-.244-.079-.378-.312-.475l-.016-.007-.125-.05a.82.82 0 0 1-.128-.07 1.451 1.451 0 0 0-.126-.073c.289-.043.445-.074.564-.121.286-.113.323-.376.048-.55-.375-.236-1.379-.258-1.82-.05l.206.366c.216-.103.708-.122 1.052-.07-.052.009-.11.018-.177.027l-.196.028a.774.774 0 0 0-.301.088c-.142.089-.163.248-.062.366a.6.6 0 0 0 .183.132l.096.048.096.047c.081.04.134.069.173.095.062.041.126.075.198.106l.15.062.006.002a.274.274 0 0 0-.061.176Z" fill="#AD1619"/><path d="m2.962 6.183.165.032v.226c-.176.128-.623.345-.623.345v-.603h.458ZM8.157 6.183l-.165.032v.226c.176.128.623.345.623.345v-.603h-.458Z" fill="#F1F9FF"/><path fill-rule="evenodd" clip-rule="evenodd" d="M4.63 3.443c-.472 0-.904.284-.904.284v.076l.565.52s.159.5 1.272.382v.002s.737-.019.79-.034c.02-.007.041-.012.063-.018.144-.039.309-.083.407-.332l.565-.52v-.075a1.622 1.622 0 0 0-.905-.285 1.952 1.952 0 0 0-.918-.142v-.002c-.465-.042-.934.144-.934.144Zm.933-.116Z" fill="#AD1619"/><path fill-rule="evenodd" clip-rule="evenodd" d="m3.76 3.89.038-.036.513.442a5.757 5.757 0 0 1 1.216-.154h.045a5.725 5.725 0 0 1 1.232.158s-.006.048-.021.105l.056-.1.006-.006.517-.445.038.037-.514.443c-.074.126-.112.21-.112.245 0 .053-.15.084-.444.116-.23.025-.5.042-.722.045h-.056a7.867 7.867 0 0 1-.722-.045c-.294-.032-.444-.063-.444-.116a.1.1 0 0 0-.004-.025.386.386 0 0 1-.064-.142 2.508 2.508 0 0 0-.044-.078L3.76 3.89Zm2.867.69c.039.016.07 0 .095-.032a.152.152 0 0 0-.004.024.579.579 0 0 1-.098.03c-.072.014-.175.029-.296.042-.238.026-.52.044-.744.045a7.734 7.734 0 0 1-.744-.045 3.324 3.324 0 0 1-.296-.043.675.675 0 0 1-.073-.019l.006-.002c.122-.053.931-.102 1.077-.11.145.008.954.057 1.077.11Zm.154-.01-.001.001Z" fill="#C88A02"/><path fill-rule="evenodd" clip-rule="evenodd" d="M5.556 2.95c.093 0 .168-.068.168-.153 0-.085-.075-.154-.168-.154-.093 0-.168.069-.168.154 0 .085.075.154.168.154Z" fill="#005BBF"/><path fill-rule="evenodd" clip-rule="evenodd" d="M5.493 2.368h.117v.068h.076v.107H5.61v.214h.076v.107h-.27v-.107h.077v-.214h-.077v-.107h.077v-.068Z" fill="#C88A02"/><path fill="#C88A02" d="M5.472 2.949h.224v.667h-.224z"/><path d="m3.854 3.844-.308-.01c.145-.77.86-1.146 2.002-1.146 1.144 0 1.856.378 1.99 1.15l-.415.04c-.066-.375-.752-.715-1.569-.715-.818 0-1.629.303-1.7.681Z" fill="#C88A02"/><path opacity=".3" fill-rule="evenodd" clip-rule="evenodd" d="M3.736 4.746h3.64v2.998s-.27 1.006-1.82 1.006-1.82-1.033-1.82-1.033V4.746Z" fill="#E1E5E8"/><mask id="d" style="mask-type:alpha" maskUnits="userSpaceOnUse" x="3" y="4" width="5" height="5"><path fill-rule="evenodd" clip-rule="evenodd" d="M3.736 4.746h3.64v2.998s-.27 1.006-1.82 1.006-1.82-1.033-1.82-1.033V4.746Z" fill="#fff"/></mask><g mask="url(#d)"><path fill="#FFC034" d="M3.736 6.594h1.848v2.002H3.736z"/><path fill="#AD1619" d="M3.736 4.695h1.848v1.951H3.736z"/><path fill="#AD1619" d="M5.528 6.543h1.848v1.951H5.528z"/><path fill="#F1F9FF" d="M5.528 4.746h1.96v1.899h-1.96z"/><path fill-rule="evenodd" clip-rule="evenodd" d="M6.741 8.495s-1.186.085-1.186-.616c0 0-.011.616-1.25.616v.553h2.436v-.553Z" fill="#F1F9FF"/><path fill-rule="evenodd" clip-rule="evenodd" d="M5.556 7.005c.232 0 .42-.184.42-.411a.415.415 0 0 0-.42-.41.415.415 0 0 0-.42.41c0 .227.188.41.42.41Z" fill="#005BBF" stroke="#AD1619" stroke-width=".583"/></g><path fill-rule="evenodd" clip-rule="evenodd" d="M4.5 6c.276 0 .5-.205.5-.458s-.224-.459-.5-.459-.5.206-.5.459.224.458.5.458Z" fill="#C88A02"/><path fill-rule="evenodd" clip-rule="evenodd" d="M6.5 6c.276 0 .5-.205.5-.458s-.224-.459-.5-.459-.5.206-.5.459.224.458.5.458Z" fill="#C37C9C"/><path fill-rule="evenodd" clip-rule="evenodd" d="M6.5 7.833c.276 0 .5-.205.5-.458s-.224-.458-.5-.458-.5.205-.5.458.224.458.5.458Z" fill="#FFC034"/><path d="M4.5 7.833c.276 0 .5-.205.5-.458s-.224-.458-.5-.458-.5.205-.5.458.224.458.5.458Z" fill="#AD1619"/></g></svg>